<svg width="180" height="29" viewBox="0 0 180 29" fill="none" xmlns="http://www.w3.org/2000/svg">
<path d="M23.9629 2.33789C24.3262 1.5293 24.584 1.125 24.7363 1.125H24.8242C25 1.125 25.3574 1.3125 25.8965 1.6875C26.4355 2.0625 26.7051 2.41406 26.7051 2.74219C26.7051 3.19922 25.2051 6.73828 22.2051 13.3594C19.2051 19.9805 17.4824 23.6953 17.0371 24.5039C16.6035 25.3008 16.3047 25.834 16.1406 26.1035C15.9766 26.373 15.7539 26.6719 15.4727 27C14.9688 27.6211 14.3418 27.9316 13.5918 27.9316C13.2871 27.9316 13.0176 27.9668 12.7832 28.0371C12.5488 28.1191 12.4082 28.1602 12.3613 28.1602C11.9863 28.1602 11.7988 28.0723 11.7988 27.8965C11.7988 27.8613 11.8457 27.7148 11.9395 27.457C12.0449 27.2109 13.3867 24.3691 15.9648 18.9316C13.2109 18.8262 10.791 18.7441 8.70508 18.6855C6.70117 21.2051 4.88477 23.8418 3.25586 26.5957C3.05664 26.9824 2.86914 27.252 2.69336 27.4043C2.51758 27.5684 2.27734 27.6504 1.97266 27.6504C1.66797 27.6504 1.33984 27.4922 0.988281 27.1758C0.636719 26.8711 0.460938 26.5137 0.460938 26.1035C0.460938 24.9316 1.97266 22.4238 4.99609 18.5801C3.57812 18.5801 2.67578 18.6152 2.28906 18.6855C1.91406 18.7559 1.67383 18.791 1.56836 18.791C1.25195 18.791 1.09375 18.5273 1.09375 18C1.09375 17.4609 1.4043 16.9922 2.02539 16.5938C2.6582 16.1836 3.50195 15.9785 4.55664 15.9785C4.63867 15.9785 4.78516 15.9727 4.99609 15.9609C5.72266 15.9258 6.4668 15.8965 7.22852 15.873C9.7832 12.873 12.4551 10.0898 15.2441 7.52344C18.0332 4.95703 20.4473 3.1582 22.4863 2.12695C22.8145 1.96289 23.0723 1.88672 23.2598 1.89844C23.459 1.89844 23.6934 2.04492 23.9629 2.33789ZM22.7324 4.81641C18.4551 8.0625 14.5469 11.748 11.0078 15.873C13.082 15.9199 15.1797 16.0078 17.3008 16.1367C19.4336 11.6484 21.2441 7.875 22.7324 4.81641ZM27.4082 17.4199C30.1738 14.2793 32.5293 12.709 34.4746 12.709C34.9551 12.709 35.3477 12.8555 35.6523 13.1484C35.9688 13.4297 36.127 13.7988 36.127 14.2559C36.127 14.7129 35.7988 15.4805 35.1426 16.5586C34.498 17.625 33.9004 18.5273 33.3496 19.2656C33.0566 19.6406 32.7227 19.8281 32.3477 19.8281C31.9844 19.8281 31.6973 19.6934 31.4863 19.4238C31.2871 19.1543 31.1875 18.8379 31.1875 18.4746C31.1875 17.666 31.6211 16.752 32.4883 15.7324L32.4531 15.6973C32.0664 15.7324 31.1055 16.4941 29.5703 17.9824C28.0469 19.4707 26.7461 20.8066 25.668 21.9902C24.6016 23.1621 23.4414 24.5918 22.1875 26.2793C21.8242 26.7832 21.5137 27.0352 21.2559 27.0352C21.0098 27.0352 20.6816 26.959 20.2715 26.8066C19.8496 26.6426 19.5977 26.5254 19.5156 26.4551C19.4219 26.3848 19.375 26.2676 19.375 26.1035C19.375 25.9395 19.4219 25.752 19.5156 25.541C19.6094 25.3184 19.7852 25.0078 20.043 24.6094C20.2891 24.2109 20.6641 23.5664 21.168 22.6758C21.6836 21.7852 22.4805 20.4375 23.5586 18.6328C24.6367 16.8281 25.2812 15.7383 25.4922 15.3633C25.9375 14.5898 26.3008 14.0273 26.582 13.6758C27.1094 13.0078 28 12.6738 29.2539 12.6738C29.5352 12.6738 29.6758 12.8496 29.6758 13.2012C29.6758 13.752 29.166 14.7891 28.1465 16.3125L27.4082 17.4199ZM46.3398 4.35938L47.0605 4.53516C47.166 4.53516 47.2598 4.58789 47.3418 4.69336C47.4238 4.79883 47.4648 4.89844 47.4648 4.99219C47.4648 5.08594 47.3418 5.33789 47.0957 5.74805C46.8496 6.1582 46.5566 6.62695 46.2168 7.1543C45.8887 7.66992 45.7129 7.95117 45.6895 7.99805C46.6035 7.92773 47.248 7.89258 47.623 7.89258C48.0098 7.89258 48.2734 7.92188 48.4141 7.98047C48.5547 8.02734 48.7129 8.17383 48.8887 8.41992C49.0762 8.6543 49.2461 8.83594 49.3984 8.96484C49.5508 9.08203 49.627 9.26367 49.627 9.50977C49.627 9.75586 49.4746 9.9668 49.1699 10.1426C48.877 10.3066 48.5605 10.4062 48.2207 10.4414C45.502 10.7109 44.002 10.8516 43.7207 10.8633C42.7715 12.3164 41.4414 14.584 39.7305 17.666C38.0312 20.7363 37.1289 22.6582 37.0234 23.4316C36.9766 23.7832 36.9531 24.0703 36.9531 24.293C36.9531 24.75 37.1934 24.9785 37.6738 24.9785C38.1543 24.9785 38.6875 24.7969 39.2734 24.4336C39.8594 24.0586 40.3984 23.6543 40.8906 23.2207C42.2031 22.0488 42.9062 21.4629 43 21.4629C43.3047 21.4629 43.457 21.9902 43.457 23.0449C43.457 23.6191 43.1934 24.1348 42.666 24.5918C41.4824 25.6113 40.4863 26.3789 39.6777 26.8945C38.8691 27.4102 38.0605 27.668 37.252 27.668C37.0762 27.668 36.9121 27.6504 36.7598 27.6152C35.8223 27.4395 35.1309 27.0996 34.6855 26.5957C34.252 26.0801 34.0352 25.3887 34.0352 24.5215C34.0469 23.6543 34.3047 22.6055 34.8086 21.375C35.3242 20.1328 35.9688 18.8145 36.7422 17.4199C38.0078 15.1465 39.2734 13.0137 40.5391 11.0215L39.8711 11.1094C38.5117 11.2617 37.7207 11.3379 37.498 11.3379H37.3398C37 11.3379 36.6719 11.2734 36.3555 11.1445C36.0391 11.0039 35.8809 10.834 35.8809 10.6348C35.8809 10.4355 35.9629 10.2422 36.127 10.0547C36.3027 9.86719 36.4082 9.7207 36.4434 9.61523C36.5254 9.35742 36.8301 9.07031 37.3574 8.75391C37.8965 8.4375 38.3008 8.27344 38.5703 8.26172C38.8398 8.23828 39.0977 8.2207 39.3438 8.20898C39.6016 8.19727 39.8828 8.18555 40.1875 8.17383C40.5039 8.16211 40.7441 8.15039 40.9082 8.13867L42.4902 8.06836C43.4746 6.5918 44.1484 5.64258 44.5117 5.2207C44.8867 4.79883 45.1035 4.57031 45.1621 4.53516C45.2207 4.48828 45.3379 4.46484 45.5137 4.46484L46.3398 4.35938ZM56.8691 21.4805C57.0918 21.4805 57.2266 21.6504 57.2734 21.9902C57.3203 22.3301 57.3438 22.6816 57.3438 23.0449C57.3438 23.4082 57.3086 23.6602 57.2383 23.8008C56.8984 24.457 56.1543 25.2598 55.0059 26.209C53.8574 27.1465 52.7676 27.6152 51.7363 27.6152C51.1035 27.6152 50.5176 27.4219 49.9785 27.0352C49.4395 26.6602 49.1699 25.998 49.1699 25.0488C49.1699 24.0996 49.4219 23.168 49.9258 22.2539C47.0195 25.8984 44.7402 27.7207 43.0879 27.7207C42.4316 27.7207 41.8984 27.4863 41.4883 27.0176C41.0898 26.5488 40.8906 26.0684 40.8906 25.5762C40.8906 25.0723 40.9609 24.5566 41.1016 24.0293C41.2422 23.4902 41.3887 23.0098 41.541 22.5879C41.7051 22.166 41.9395 21.6445 42.2441 21.0234C42.5605 20.4023 42.7949 19.9512 42.9473 19.6699C43.0996 19.3887 43.3398 18.9668 43.668 18.4043C44.0078 17.8301 44.4473 17.0625 44.9863 16.1016C45.5371 15.1406 45.9883 14.4316 46.3398 13.9746C46.7031 13.5059 47.0547 13.2715 47.3945 13.2715C47.7344 13.2598 48.0332 13.3945 48.291 13.6758C48.5488 13.957 48.6777 14.1855 48.6777 14.3613C48.6777 14.5371 48.2852 15.3281 47.5 16.7344C45.1797 20.9297 44.0195 23.373 44.0195 24.0645C44.0195 24.2402 44.084 24.3281 44.2129 24.3281C44.7754 24.3281 46.1758 23.1094 48.4141 20.6719C50.6523 18.2344 51.9473 16.6758 52.2988 15.9961C52.6504 15.3047 52.9902 14.7246 53.3184 14.2559C53.6582 13.7871 53.9102 13.5 54.0742 13.3945C54.5781 13.0664 55.2285 12.8906 56.0254 12.8672C56.1543 12.8672 56.2539 12.873 56.3242 12.8848C56.3945 12.8965 56.4766 12.9961 56.5703 13.1836C56.6641 13.3711 56.7109 13.5176 56.7109 13.623C56.6055 13.9512 56.1367 14.8242 55.3047 16.2422C54.4844 17.6602 54.0273 18.4629 53.9336 18.6504C52.5508 21.5098 51.8594 23.373 51.8594 24.2402C51.8594 24.7324 52.0469 24.9785 52.4219 24.9785C53.1016 24.8848 53.9219 24.3398 54.8828 23.3438C55.2344 22.9805 55.5801 22.6113 55.9199 22.2363C56.2715 21.8613 56.4883 21.6445 56.5703 21.5859C56.6523 21.5156 56.752 21.4805 56.8691 21.4805ZM61.9668 17.4199C64.7324 14.2793 67.0879 12.709 69.0332 12.709C69.5137 12.709 69.9062 12.8555 70.2109 13.1484C70.5273 13.4297 70.6855 13.7988 70.6855 14.2559C70.6855 14.7129 70.3574 15.4805 69.7012 16.5586C69.0566 17.625 68.459 18.5273 67.9082 19.2656C67.6152 19.6406 67.2812 19.8281 66.9062 19.8281C66.543 19.8281 66.2559 19.6934 66.0449 19.4238C65.8457 19.1543 65.7461 18.8379 65.7461 18.4746C65.7461 17.666 66.1797 16.752 67.0469 15.7324L67.0117 15.6973C66.625 15.7324 65.6641 16.4941 64.1289 17.9824C62.6055 19.4707 61.3047 20.8066 60.2266 21.9902C59.1602 23.1621 58 24.5918 56.7461 26.2793C56.3828 26.7832 56.0723 27.0352 55.8145 27.0352C55.5684 27.0352 55.2402 26.959 54.8301 26.8066C54.4082 26.6426 54.1562 26.5254 54.0742 26.4551C53.9805 26.3848 53.9336 26.2676 53.9336 26.1035C53.9336 25.9395 53.9805 25.752 54.0742 25.541C54.168 25.3184 54.3438 25.0078 54.6016 24.6094C54.8477 24.2109 55.2227 23.5664 55.7266 22.6758C56.2422 21.7852 57.0391 20.4375 58.1172 18.6328C59.1953 16.8281 59.8398 15.7383 60.0508 15.3633C60.4961 14.5898 60.8594 14.0273 61.1406 13.6758C61.668 13.0078 62.5586 12.6738 63.8125 12.6738C64.0938 12.6738 64.2344 12.8496 64.2344 13.2012C64.2344 13.752 63.7246 14.7891 62.7051 16.3125L61.9668 17.4199ZM86.1367 2.30273C86.1367 2.80664 87.6016 3.05859 90.5312 3.05859C91.9375 3.05859 93.666 2.99414 95.7168 2.86523C97.7793 2.72461 99.0215 2.57813 99.4434 2.42578C99.877 2.27344 100.246 2.08594 100.551 1.86328C100.855 1.62891 101.078 1.42969 101.219 1.26562C101.594 0.832031 102.08 0.615234 102.678 0.615234C103.287 0.615234 103.838 0.732422 104.33 0.966797C104.822 1.18945 105.068 1.5 105.068 1.89844C105.068 2.28516 104.898 2.68359 104.559 3.09375C104.219 3.50391 103.861 3.84375 103.486 4.11328C103.111 4.37109 102.695 4.63477 102.238 4.9043C101.793 5.17383 101.535 5.33789 101.465 5.39648C101.395 5.45508 101.102 5.70703 100.586 6.15234C98.3711 8.00391 94.8789 11.1914 90.1094 15.7148C85.3516 20.2383 82.4453 23.0273 81.3906 24.082C82.6797 23.7891 84.4023 23.4961 86.5586 23.2031C88.7148 22.9102 90.7129 22.7637 92.5527 22.7637C94.4043 22.7637 95.8223 22.9629 96.8066 23.3613C97.8027 23.748 98.3008 24.4219 98.3008 25.3828C98.3008 25.8398 98.1953 26.3145 97.9844 26.8066C97.7852 27.2871 97.6152 27.5273 97.4746 27.5273C97.4277 27.5273 97.3809 27.4512 97.334 27.2988C97.2871 27.1582 97.2402 27.0703 97.1934 27.0352C96.6426 26.6719 95.6523 26.4902 94.2227 26.4902C92.8047 26.4902 90.4082 26.6309 87.0332 26.9121C83.6699 27.1816 81.5723 27.3633 80.7402 27.457C79.9199 27.5508 79.3809 27.5977 79.123 27.5977C78.3848 27.5977 77.7812 27.3457 77.3125 26.8418C76.8438 26.3262 76.6094 25.8691 76.6094 25.4707L76.75 24.9082C76.75 24.3457 78.1152 22.6641 80.8457 19.8633C83.5879 17.0625 86.5059 14.25 89.5996 11.4258C92.7051 8.58984 94.9961 6.5918 96.4727 5.43164C95.4531 5.72461 94.1699 5.98828 92.623 6.22266C91.0762 6.44531 89.6172 6.55664 88.2461 6.55664C84.8242 6.55664 83.1133 5.8125 83.1133 4.32422C83.1133 3.83203 83.248 3.38672 83.5176 2.98828C83.7988 2.58984 84.1328 2.28516 84.5195 2.07422C85.293 1.64062 85.8496 1.42383 86.1895 1.42383C86.541 1.42383 86.7168 1.5 86.7168 1.65234C86.7168 1.72266 86.6172 1.82812 86.418 1.96875C86.2305 2.10938 86.1367 2.2207 86.1367 2.30273ZM113.91 21.8145C113.992 22.3535 114.033 22.7812 114.033 23.0977C114.033 23.4023 113.975 23.6719 113.857 23.9062C113.752 24.1289 113.506 24.4512 113.119 24.873C112.744 25.2832 112.293 25.6992 111.766 26.1211C110.477 27.1406 109.158 27.6504 107.811 27.6504C105.877 27.6504 104.91 26.7949 104.91 25.084C104.91 23.5957 106.205 20.6309 108.795 16.1895C108.889 16.0254 108.953 15.9082 108.988 15.8379C108.086 16.4707 106.357 18.1992 103.803 21.0234C101.26 23.8359 99.5664 25.8281 98.7227 27C98.6523 27.1055 98.4766 27.2227 98.1953 27.3516C97.9141 27.4805 97.6914 27.5449 97.5273 27.5449C97.375 27.5449 97.2109 27.4922 97.0352 27.3867C96.8477 27.293 96.7305 27.2461 96.6836 27.2461C96.5312 27.2461 96.4551 27.1934 96.4551 27.0879C96.4551 26.9941 96.666 26.4609 97.0879 25.4883C97.498 24.5039 98.043 23.2852 98.7227 21.832C100.586 17.8242 103.357 12.6094 107.037 6.1875C108.326 3.9375 109.334 2.34375 110.061 1.40625C110.576 0.738281 111.443 0.404297 112.662 0.404297C112.92 0.404297 113.066 0.480469 113.102 0.632812C113.137 0.785156 113.154 0.949219 113.154 1.125C113.154 1.30078 113.119 1.47656 113.049 1.65234L111.168 4.58789C107.441 10.4004 104.635 15.2168 102.748 19.0371C104.576 16.8105 106.352 15.0938 108.074 13.8867C109.141 13.125 109.938 12.7441 110.465 12.7441C111.004 12.7441 111.49 12.832 111.924 13.0078C112.357 13.1719 112.574 13.5762 112.574 14.2207C112.574 14.4551 112.193 15.3223 111.432 16.8223C109.146 21.3223 108.004 23.8242 108.004 24.3281C108.004 24.8203 108.209 25.0664 108.619 25.0664C109.217 25.0664 110.137 24.4863 111.379 23.3262C112.316 22.4473 112.908 21.8848 113.154 21.6387C113.295 21.5332 113.424 21.4805 113.541 21.4805C113.764 21.4805 113.887 21.5918 113.91 21.8145ZM124.053 7.69922C124.053 8.36719 123.742 9.04102 123.121 9.7207C122.5 10.3887 121.85 10.7227 121.17 10.7227C120.502 10.7227 120.168 10.3711 120.168 9.66797C120.168 8.96484 120.461 8.29688 121.047 7.66406C121.645 7.01953 122.301 6.69727 123.016 6.69727C123.332 6.69727 123.584 6.78516 123.771 6.96094C123.959 7.13672 124.053 7.38281 124.053 7.69922ZM121.205 23.0449C121.205 23.3965 121.17 23.6484 121.1 23.8008C120.525 24.9727 119.611 25.9219 118.357 26.6484C117.104 27.3633 116.014 27.7207 115.088 27.7207C114.162 27.7207 113.365 27.4102 112.697 26.7891C112.029 26.168 111.695 25.5352 111.695 24.8906C111.695 24.2461 112.018 23.3086 112.662 22.0781C113.307 20.8477 113.951 19.7109 114.596 18.668C115.24 17.625 115.562 17.0625 115.562 16.9805C115.562 16.8867 115.439 16.7109 115.193 16.4531C114.959 16.1953 114.842 16.0078 114.842 15.8906C114.842 15.7617 115.082 15.4395 115.562 14.9238C116.055 14.3965 116.646 13.8809 117.338 13.377C118.041 12.8613 118.574 12.6035 118.938 12.6035C119.312 12.6035 119.646 12.7676 119.939 13.0957C120.232 13.4238 120.379 13.7227 120.379 13.9922C120.379 14.2617 118.984 16.7988 116.195 21.6035C116.16 21.6738 116.061 21.832 115.896 22.0781C115.744 22.3125 115.621 22.5117 115.527 22.6758C115.445 22.8281 115.346 23.0156 115.229 23.2383C114.994 23.707 114.877 24.0996 114.877 24.416C114.877 24.8145 115.146 25.0137 115.686 25.0137C116.225 25.0137 116.781 24.832 117.355 24.4688C117.941 24.0938 118.445 23.6836 118.867 23.2383C119.969 22.0547 120.596 21.4629 120.748 21.4629C121.053 21.4629 121.205 21.9902 121.205 23.0449ZM132.016 4.35938L132.736 4.53516C132.842 4.53516 132.936 4.58789 133.018 4.69336C133.1 4.79883 133.141 4.89844 133.141 4.99219C133.141 5.08594 133.018 5.33789 132.771 5.74805C132.525 6.1582 132.232 6.62695 131.893 7.1543C131.564 7.66992 131.389 7.95117 131.365 7.99805C132.279 7.92773 132.924 7.89258 133.299 7.89258C133.686 7.89258 133.949 7.92188 134.09 7.98047C134.23 8.02734 134.389 8.17383 134.564 8.41992C134.752 8.6543 134.922 8.83594 135.074 8.96484C135.227 9.08203 135.303 9.26367 135.303 9.50977C135.303 9.75586 135.15 9.9668 134.846 10.1426C134.553 10.3066 134.236 10.4062 133.896 10.4414C131.178 10.7109 129.678 10.8516 129.396 10.8633C128.447 12.3164 127.117 14.584 125.406 17.666C123.707 20.7363 122.805 22.6582 122.699 23.4316C122.652 23.7832 122.629 24.0703 122.629 24.293C122.629 24.75 122.869 24.9785 123.35 24.9785C123.83 24.9785 124.363 24.7969 124.949 24.4336C125.535 24.0586 126.074 23.6543 126.566 23.2207C127.879 22.0488 128.582 21.4629 128.676 21.4629C128.98 21.4629 129.133 21.9902 129.133 23.0449C129.133 23.6191 128.869 24.1348 128.342 24.5918C127.158 25.6113 126.162 26.3789 125.354 26.8945C124.545 27.4102 123.736 27.668 122.928 27.668C122.752 27.668 122.588 27.6504 122.436 27.6152C121.498 27.4395 120.807 27.0996 120.361 26.5957C119.928 26.0801 119.711 25.3887 119.711 24.5215C119.723 23.6543 119.98 22.6055 120.484 21.375C121 20.1328 121.645 18.8145 122.418 17.4199C123.684 15.1465 124.949 13.0137 126.215 11.0215L125.547 11.1094C124.188 11.2617 123.396 11.3379 123.174 11.3379H123.016C122.676 11.3379 122.348 11.2734 122.031 11.1445C121.715 11.0039 121.557 10.834 121.557 10.6348C121.557 10.4355 121.639 10.2422 121.803 10.0547C121.979 9.86719 122.084 9.7207 122.119 9.61523C122.201 9.35742 122.506 9.07031 123.033 8.75391C123.572 8.4375 123.977 8.27344 124.246 8.26172C124.516 8.23828 124.773 8.2207 125.02 8.20898C125.277 8.19727 125.559 8.18555 125.863 8.17383C126.18 8.16211 126.42 8.15039 126.584 8.13867L128.166 8.06836C129.15 6.5918 129.824 5.64258 130.188 5.2207C130.562 4.79883 130.779 4.57031 130.838 4.53516C130.896 4.48828 131.014 4.46484 131.189 4.46484L132.016 4.35938ZM139.75 13.8516C139.75 14.625 139.434 15.3047 138.801 15.8906C138.18 16.4766 137.471 16.7695 136.674 16.7695C136.416 16.7695 136.246 16.7109 136.164 16.5938C136.082 16.4648 136.041 16.3008 136.041 16.1016C136.041 15.9023 136.064 15.709 136.111 15.5215C135.689 15.6621 135.221 15.8789 134.705 16.1719C134.189 16.4648 133.557 16.8984 132.807 17.4727C132.057 18.0469 131.682 18.4746 131.682 18.7559C131.682 18.8496 131.816 18.8965 132.086 18.8965C132.367 18.8965 132.795 18.8027 133.369 18.6152C133.943 18.416 134.342 18.3164 134.564 18.3164C134.799 18.3164 134.951 18.3281 135.021 18.3516C135.174 18.4336 135.338 18.6152 135.514 18.8965C135.689 19.166 135.777 19.3828 135.777 19.5469C135.777 19.6992 135.625 19.9043 135.32 20.1621C135.016 20.4199 134.67 20.6191 134.283 20.7598C133.896 20.8887 133.639 20.9883 133.51 21.0586C131.037 22.4414 129.801 23.3906 129.801 23.9062C129.801 24.8203 130.58 25.2773 132.139 25.2773C133.135 25.2773 134.137 24.9609 135.145 24.3281C136 23.7891 136.768 23.2441 137.447 22.6934C138.139 22.1309 138.572 21.7852 138.748 21.6562C138.936 21.5273 139.076 21.4629 139.17 21.4629C139.475 21.4629 139.627 21.8027 139.627 22.4824C139.627 23.1621 139.586 23.6133 139.504 23.8359C139.422 24.0469 139.188 24.3105 138.801 24.627C136.293 26.666 133.92 27.6855 131.682 27.6855C130.486 27.6855 129.531 27.5215 128.816 27.1934C127.504 26.5957 126.848 25.6816 126.848 24.4512C126.848 22.834 127.967 21.6094 130.205 20.7773C129.76 20.5781 129.473 20.3262 129.344 20.0215C129.215 19.7051 129.15 19.207 129.15 18.5273C129.15 17.8359 129.467 17.1094 130.1 16.3477C130.744 15.5742 131.529 14.9414 132.455 14.4492C134.518 13.3359 136.357 12.7793 137.975 12.7793C138.361 12.7793 138.754 12.873 139.152 13.0605C139.551 13.248 139.75 13.5117 139.75 13.8516ZM148.258 24.293C148.258 24.8086 148.609 25.0664 149.312 25.0664C149.688 25.0664 150.156 24.8789 150.719 24.5039C151.293 24.1289 151.809 23.7188 152.266 23.2734C153.484 22.0664 154.176 21.4629 154.34 21.4629C154.645 21.4629 154.797 21.9023 154.797 22.7812C154.797 23.6602 154.521 24.2637 153.971 24.5918C152.295 26.1035 151 27.0234 150.086 27.3516C149.57 27.5273 149.002 27.6094 148.381 27.5977C147.76 27.5859 147.145 27.3164 146.535 26.7891C145.926 26.2617 145.621 25.623 145.621 24.873C145.621 24.1113 145.82 23.25 146.219 22.2891C146.617 21.3281 147.021 20.5078 147.432 19.8281C147.854 19.1367 148.369 18.3398 148.979 17.4375C149.588 16.5234 149.91 15.9551 149.945 15.7324L149.91 15.6973C149.523 15.7324 148.562 16.4941 147.027 17.9824C145.504 19.4707 144.244 20.7656 143.248 21.8672C142.252 22.9688 141.062 24.4395 139.68 26.2793C139.293 26.7832 138.977 27.0352 138.73 27.0352C138.484 27.0352 138.156 26.959 137.746 26.8066C137.324 26.6426 137.066 26.5254 136.973 26.4551C136.879 26.3848 136.832 26.2793 136.832 26.1387C136.832 25.998 136.873 25.8281 136.955 25.6289C137.037 25.418 137.119 25.248 137.201 25.1191C137.271 24.9785 137.395 24.7676 137.57 24.4863C137.746 24.2051 138.092 23.6133 138.607 22.7109C139.135 21.7969 139.938 20.4375 141.016 18.6328C142.094 16.8281 142.738 15.7383 142.949 15.3633C143.395 14.5898 143.758 14.0273 144.039 13.6758C144.566 13.0078 145.457 12.6738 146.711 12.6738C146.992 12.6738 147.133 12.8496 147.133 13.2012C147.133 13.752 146.623 14.7891 145.604 16.3125L144.865 17.4199C146.893 15.1699 148.604 13.7461 149.998 13.1484C150.678 12.8555 151.287 12.709 151.826 12.709C152.377 12.709 152.811 12.8555 153.127 13.1484C153.455 13.4414 153.619 13.7695 153.619 14.1328C153.619 14.4844 153.496 14.9121 153.25 15.416C153.004 15.9082 152.752 16.3535 152.494 16.752C152.248 17.1387 151.92 17.6309 151.51 18.2285C151.1 18.8262 150.877 19.1543 150.842 19.2129C150.807 19.2598 150.713 19.4004 150.561 19.6348C150.42 19.8574 150.314 20.0215 150.244 20.127C150.174 20.2324 150.057 20.4199 149.893 20.6895C149.729 20.9473 149.594 21.1641 149.488 21.3398C149.395 21.5156 149.271 21.7324 149.119 21.9902C148.979 22.248 148.861 22.4707 148.768 22.6582C148.686 22.8457 148.598 23.0508 148.504 23.2734C148.34 23.6836 148.258 24.0234 148.258 24.293ZM165.238 13.8516C165.238 14.625 164.922 15.3047 164.289 15.8906C163.668 16.4766 162.959 16.7695 162.162 16.7695C161.904 16.7695 161.734 16.7109 161.652 16.5938C161.57 16.4648 161.529 16.3008 161.529 16.1016C161.529 15.9023 161.553 15.709 161.6 15.5215C161.178 15.6621 160.709 15.8789 160.193 16.1719C159.678 16.4648 159.045 16.8984 158.295 17.4727C157.545 18.0469 157.17 18.4746 157.17 18.7559C157.17 18.8496 157.305 18.8965 157.574 18.8965C157.855 18.8965 158.283 18.8027 158.857 18.6152C159.432 18.416 159.83 18.3164 160.053 18.3164C160.287 18.3164 160.439 18.3281 160.51 18.3516C160.662 18.4336 160.826 18.6152 161.002 18.8965C161.178 19.166 161.266 19.3828 161.266 19.5469C161.266 19.6992 161.113 19.9043 160.809 20.1621C160.504 20.4199 160.158 20.6191 159.771 20.7598C159.385 20.8887 159.127 20.9883 158.998 21.0586C156.525 22.4414 155.289 23.3906 155.289 23.9062C155.289 24.8203 156.068 25.2773 157.627 25.2773C158.623 25.2773 159.625 24.9609 160.633 24.3281C161.488 23.7891 162.256 23.2441 162.936 22.6934C163.627 22.1309 164.061 21.7852 164.236 21.6562C164.424 21.5273 164.564 21.4629 164.658 21.4629C164.963 21.4629 165.115 21.8027 165.115 22.4824C165.115 23.1621 165.074 23.6133 164.992 23.8359C164.91 24.0469 164.676 24.3105 164.289 24.627C161.781 26.666 159.408 27.6855 157.17 27.6855C155.975 27.6855 155.02 27.5215 154.305 27.1934C152.992 26.5957 152.336 25.6816 152.336 24.4512C152.336 22.834 153.455 21.6094 155.693 20.7773C155.248 20.5781 154.961 20.3262 154.832 20.0215C154.703 19.7051 154.639 19.207 154.639 18.5273C154.639 17.8359 154.955 17.1094 155.588 16.3477C156.232 15.5742 157.018 14.9414 157.943 14.4492C160.006 13.3359 161.846 12.7793 163.463 12.7793C163.85 12.7793 164.242 12.873 164.641 13.0605C165.039 13.248 165.238 13.5117 165.238 13.8516ZM179.23 13.4648C179.23 14.2734 178.779 15.457 177.877 17.0156C176.975 18.5625 175.814 20.1328 174.396 21.7266C172.99 23.3203 171.496 24.7031 169.914 25.875C168.332 27.0352 167.096 27.6152 166.205 27.6152C165.725 27.6152 165.285 27.4395 164.887 27.0879C164.488 26.7363 164.289 26.1797 164.289 25.418C164.289 24.6445 164.652 23.4316 165.379 21.7793C166.105 20.127 166.82 18.7324 167.523 17.5957C166.902 18.0527 166.521 18.2812 166.381 18.2812C166.252 18.2812 166.082 18.1289 165.871 17.8242C165.672 17.5195 165.572 17.2852 165.572 17.1211C165.572 16.9453 165.602 16.8164 165.66 16.7344C167.969 14.168 169.598 12.8848 170.547 12.8848C170.945 12.8848 171.279 13.002 171.549 13.2363C171.818 13.4707 171.953 13.752 171.953 14.0801C171.953 14.4082 171.555 15.3516 170.758 16.9102C169.961 18.4688 169.164 20.0449 168.367 21.6387C167.57 23.2207 167.172 24.2168 167.172 24.627C167.172 24.6973 167.207 24.7324 167.277 24.7324C167.582 24.7324 168.402 24.1289 169.738 22.9219C171.086 21.7031 172.176 20.5723 173.008 19.5293C173.84 18.4863 174.566 17.4375 175.188 16.3828C175.82 15.3281 176.137 14.6367 176.137 14.3086C176.137 13.9805 176.066 13.7109 175.926 13.5C175.797 13.2773 175.732 13.043 175.732 12.7969C175.732 12.5391 175.902 12.2578 176.242 11.9531C176.594 11.6367 177.039 11.4785 177.578 11.4785C178.68 11.4785 179.23 12.1406 179.23 13.4648Z" fill="black"/>
</svg>
